<?xml version="1.0" encoding="utf-8"?>
<!-- Generator: Adobe Illustrator 27.5.0, SVG Export Plug-In . SVG Version: 6.00 Build 0)  -->
<svg version="1.1" id="Layer_1" xmlns="http://www.w3.org/2000/svg" xmlns:xlink="http://www.w3.org/1999/xlink" x="0px" y="0px"
	 viewBox="0 0 144 144" style="enable-background:new 0 0 144 144;" xml:space="preserve">
<g>
	<radialGradient id="SVGID_1_" cx="72" cy="72.0002" r="71.9999" gradientUnits="userSpaceOnUse">
		<stop  offset="0" style="stop-color:#FFFFFF"/>
		<stop  offset="1" style="stop-color:#F4F4F4"/>
	</radialGradient>
	<rect y="0" style="fill:url(#SVGID_1_);" width="144" height="144"/>
	<g>
		
			<radialGradient id="SVGID_00000033367294000114270600000016579573981059444640_" cx="20.1007" cy="7983.7339" r="6.4185" gradientTransform="matrix(1.4543 0 0 0.4585 42.7666 -3540.5342)" gradientUnits="userSpaceOnUse">
			<stop  offset="0" style="stop-color:#A3A5A8"/>
			<stop  offset="0.0082" style="stop-color:#A5A7AA"/>
			<stop  offset="0.1887" style="stop-color:#C5C6C8"/>
			<stop  offset="0.3752" style="stop-color:#DFDFE0"/>
			<stop  offset="0.5679" style="stop-color:#F1F1F1"/>
			<stop  offset="0.7707" style="stop-color:#FBFCFC"/>
			<stop  offset="1" style="stop-color:#FFFFFF"/>
		</radialGradient>
		<path style="fill:url(#SVGID_00000033367294000114270600000016579573981059444640_);" d="M81.332,120.008
			c0,1.625-4.179,2.943-9.333,2.943c-5.153,0-9.333-1.318-9.333-2.943s4.18-2.943,9.333-2.943
			C77.153,117.064,81.332,118.383,81.332,120.008z"/>
		<g>
			
				<radialGradient id="SVGID_00000042005343628018862270000010059919954448135833_" cx="72.3055" cy="49.2293" r="37.727" gradientUnits="userSpaceOnUse">
				<stop  offset="0.0314" style="stop-color:#F61C00"/>
				<stop  offset="1" style="stop-color:#B22000"/>
			</radialGradient>
			<polygon style="fill:url(#SVGID_00000042005343628018862270000010059919954448135833_);" points="72.289,120.109 70.447,30.356 
				74.234,30.356 			"/>
			<g>
				
					<radialGradient id="SVGID_00000034788603072404479000000016783407173560508297_" cx="72.2425" cy="23.2718" r="5.2847" gradientUnits="userSpaceOnUse">
					<stop  offset="0.0314" style="stop-color:#F61C00"/>
					<stop  offset="1" style="stop-color:#B22000"/>
				</radialGradient>
				<path style="fill:url(#SVGID_00000034788603072404479000000016783407173560508297_);" d="M77.626,26.334
					c0,2.918-2.367,5.284-5.285,5.284c-2.918,0-5.284-2.366-5.284-5.284c0-2.92,2.366-5.285,5.284-5.285
					C75.259,21.049,77.626,23.415,77.626,26.334z"/>
				
					<linearGradient id="SVGID_00000043416653482732212720000006069688746862242204_" gradientUnits="userSpaceOnUse" x1="74.9479" y1="20.1362" x2="71.7222" y2="27.3294">
					<stop  offset="0.1237" style="stop-color:#FFFFFF"/>
					<stop  offset="0.1956" style="stop-color:#CBCBCB"/>
					<stop  offset="0.2714" style="stop-color:#9C9C9C"/>
					<stop  offset="0.3518" style="stop-color:#727272"/>
					<stop  offset="0.4356" style="stop-color:#4F4F4F"/>
					<stop  offset="0.5237" style="stop-color:#323232"/>
					<stop  offset="0.6175" style="stop-color:#1C1C1C"/>
					<stop  offset="0.7196" style="stop-color:#0C0C0C"/>
					<stop  offset="0.8363" style="stop-color:#030303"/>
					<stop  offset="1" style="stop-color:#000000"/>
				</linearGradient>
				<path style="fill:url(#SVGID_00000043416653482732212720000006069688746862242204_);" d="M76.258,24.835
					c0,1.887-1.529,3.419-3.416,3.419c-1.887,0-3.419-1.532-3.419-3.419c0-1.888,1.532-3.417,3.419-3.417
					C74.729,21.418,76.258,22.948,76.258,24.835z"/>
			</g>
			<g>
				
					<radialGradient id="SVGID_00000047040844055184541840000011207949685669961112_" cx="37.9874" cy="45.0454" r="10.5221" gradientUnits="userSpaceOnUse">
					<stop  offset="0.0314" style="stop-color:#F61C00"/>
					<stop  offset="1" style="stop-color:#B22000"/>
				</radialGradient>
				<path style="fill:url(#SVGID_00000047040844055184541840000011207949685669961112_);" d="M51.428,38.665
					c0,0-0.124,0.024-0.327,0.117c-0.208,0.066-0.49,0.257-0.856,0.442c-0.17,0.117-0.362,0.246-0.57,0.386
					c-0.206,0.139-0.435,0.273-0.661,0.463c-0.226,0.18-0.467,0.372-0.726,0.563c-0.129,0.098-0.263,0.194-0.396,0.3
					c-0.128,0.112-0.26,0.227-0.394,0.343c-0.267,0.237-0.549,0.476-0.842,0.723c-0.146,0.124-0.293,0.247-0.444,0.375
					c-0.145,0.136-0.293,0.276-0.441,0.414c-0.594,0.562-1.24,1.124-1.887,1.74c-0.634,0.625-1.294,1.267-1.974,1.909
					c-0.177,0.167-0.354,0.33-0.526,0.5l-0.528,0.483c-0.165,0.161-0.374,0.328-0.568,0.492c-0.197,0.163-0.392,0.335-0.596,0.481
					c-0.798,0.611-1.661,1.145-2.556,1.582c-0.896,0.437-1.818,0.791-2.739,1.027c-0.918,0.232-1.829,0.365-2.691,0.414
					c-0.864,0.039-1.68-0.008-2.423-0.102c-1.486-0.201-2.664-0.604-3.457-0.939c-0.396-0.171-0.697-0.328-0.898-0.439
					c-0.204-0.112-0.31-0.183-0.31-0.183c-0.074-0.049-0.094-0.146-0.046-0.218c0.042-0.065,0.121-0.088,0.188-0.062h0.003
					c0,0,0.106,0.039,0.317,0.104c0.209,0.07,0.525,0.156,0.926,0.252c0.801,0.189,1.966,0.4,3.357,0.421
					c0.694,0.016,1.443-0.023,2.222-0.133c0.782-0.099,1.594-0.278,2.403-0.543c0.812-0.263,1.628-0.598,2.414-1.024
					c0.782-0.432,1.559-0.916,2.275-1.485c0.188-0.135,0.353-0.281,0.526-0.421c0.172-0.146,0.344-0.276,0.521-0.45
					c0.348-0.317,0.694-0.637,1.042-0.952c0.704-0.645,1.408-1.269,2.091-1.867c0.699-0.588,1.412-1.114,2.076-1.621
					c0.167-0.125,0.333-0.249,0.493-0.371c0.172-0.11,0.341-0.222,0.507-0.33c0.332-0.215,0.656-0.423,0.967-0.614
					c0.154-0.098,0.307-0.192,0.455-0.285c0.153-0.087,0.31-0.166,0.456-0.244c0.297-0.16,0.583-0.302,0.848-0.434
					c0.261-0.143,0.531-0.236,0.771-0.335c0.242-0.094,0.466-0.177,0.667-0.249c0.424-0.105,0.74-0.207,0.979-0.214
					C51.308,38.645,51.428,38.665,51.428,38.665z"/>
				
					<radialGradient id="SVGID_00000015350250608309347120000000154957713640681865_" cx="44.0308" cy="47.1097" r="10.1626" gradientUnits="userSpaceOnUse">
					<stop  offset="0.0314" style="stop-color:#F61C00"/>
					<stop  offset="1" style="stop-color:#B22000"/>
				</radialGradient>
				<path style="fill:url(#SVGID_00000015350250608309347120000000154957713640681865_);" d="M57.002,40.926
					c0,0-0.121,0.025-0.317,0.114c-0.199,0.065-0.474,0.252-0.824,0.432c-0.165,0.111-0.352,0.239-0.55,0.374
					c-0.202,0.138-0.423,0.266-0.639,0.45c-0.22,0.177-0.451,0.362-0.701,0.547c-0.125,0.096-0.252,0.192-0.381,0.291
					c-0.125,0.112-0.251,0.221-0.381,0.335c-0.259,0.231-0.529,0.463-0.812,0.7c-0.141,0.122-0.283,0.245-0.431,0.364
					c-0.139,0.132-0.28,0.265-0.424,0.4c-0.581,0.536-1.191,1.1-1.823,1.685c-0.612,0.606-1.252,1.228-1.908,1.849
					c-0.171,0.162-0.341,0.323-0.51,0.481l-0.51,0.473c-0.163,0.156-0.362,0.317-0.551,0.473c-0.192,0.156-0.381,0.325-0.58,0.465
					c-0.772,0.594-1.609,1.111-2.476,1.537c-0.865,0.43-1.762,0.76-2.654,0.99c-0.891,0.223-1.774,0.35-2.61,0.396
					c-0.839,0.039-1.63-0.01-2.348-0.102c-1.438-0.195-2.581-0.588-3.346-0.918c-0.384-0.164-0.674-0.32-0.869-0.426
					c-0.196-0.107-0.299-0.18-0.299-0.18l0.144-0.275c0,0,0.104,0.033,0.31,0.098c0.203,0.065,0.506,0.149,0.895,0.24
					c0.774,0.182,1.9,0.379,3.245,0.395c0.671,0.016,1.396-0.023,2.149-0.127c0.753-0.1,1.537-0.271,2.316-0.531
					c0.784-0.252,1.567-0.588,2.331-0.996c0.759-0.411,1.504-0.878,2.197-1.427c0.181-0.133,0.342-0.273,0.509-0.411
					c0.166-0.141,0.33-0.265,0.503-0.429c0.338-0.31,0.674-0.619,1.009-0.923c0.684-0.626,1.36-1.228,2.026-1.807
					c0.678-0.567,1.366-1.077,2.012-1.566c0.16-0.12,0.321-0.239,0.479-0.359c0.165-0.104,0.33-0.213,0.49-0.317
					c0.322-0.205,0.635-0.408,0.937-0.593c0.151-0.094,0.298-0.185,0.443-0.275c0.149-0.078,0.296-0.159,0.441-0.235
					c0.286-0.151,0.563-0.289,0.821-0.419c0.518-0.256,1.012-0.415,1.394-0.559c0.413-0.102,0.718-0.198,0.949-0.203
					C56.886,40.908,57.002,40.926,57.002,40.926z"/>
				
					<radialGradient id="SVGID_00000175282223410488532150000000671078158214232961_" cx="49.064" cy="49.2125" r="8.9072" gradientUnits="userSpaceOnUse">
					<stop  offset="0.0314" style="stop-color:#F61C00"/>
					<stop  offset="1" style="stop-color:#B22000"/>
				</radialGradient>
				<path style="fill:url(#SVGID_00000175282223410488532150000000671078158214232961_);" d="M60.418,43.764
					c0,0-0.104,0.026-0.274,0.109c-0.173,0.06-0.412,0.226-0.713,0.39c-0.146,0.102-0.304,0.216-0.477,0.338
					c-0.175,0.12-0.364,0.237-0.551,0.403c-0.373,0.322-0.822,0.624-1.264,1.04c-0.226,0.2-0.462,0.406-0.703,0.619
					c-0.121,0.106-0.247,0.213-0.372,0.322c-0.121,0.115-0.246,0.231-0.369,0.354c-0.502,0.468-1.032,0.965-1.581,1.477
					c-0.535,0.533-1.09,1.077-1.665,1.621c-0.153,0.148-0.307,0.291-0.464,0.439l-0.454,0.4l-0.458,0.402
					c-0.157,0.133-0.291,0.271-0.484,0.396c-0.364,0.252-0.726,0.504-1.087,0.754c-0.371,0.23-0.756,0.414-1.131,0.619l-0.28,0.148
					l-0.295,0.119c-0.195,0.076-0.394,0.152-0.587,0.229c-0.384,0.164-0.785,0.266-1.18,0.365c-0.197,0.045-0.389,0.104-0.586,0.139
					c-0.195,0.029-0.392,0.059-0.583,0.09c-0.193,0.025-0.385,0.055-0.571,0.08c-0.191,0.01-0.375,0.021-0.56,0.031
					c-0.187,0.006-0.368,0.014-0.545,0.018c-0.181-0.008-0.357-0.018-0.528-0.027c-0.173-0.012-0.341-0.019-0.509-0.027
					c-0.165-0.018-0.326-0.041-0.483-0.063c-0.317-0.039-0.617-0.094-0.897-0.166c-0.284-0.064-0.55-0.121-0.794-0.205
					c-0.493-0.141-0.908-0.314-1.243-0.461c-0.336-0.145-0.588-0.285-0.76-0.381c-0.17-0.1-0.26-0.16-0.26-0.16l0.145-0.281
					c0,0,0.093,0.029,0.271,0.082c0.179,0.055,0.445,0.127,0.785,0.199c0.341,0.076,0.757,0.148,1.235,0.209
					c0.235,0.039,0.49,0.055,0.758,0.072c0.134,0.008,0.271,0.023,0.41,0.023c0.142,0,0.284,0,0.432,0.006
					c0.143,0,0.294,0.008,0.444,0.004c0.15-0.012,0.306-0.023,0.462-0.033c0.157-0.01,0.314-0.021,0.475-0.031
					c0.16-0.025,0.319-0.049,0.483-0.076c0.165-0.02,0.329-0.045,0.498-0.064c0.164-0.039,0.33-0.078,0.498-0.119
					c0.169-0.039,0.338-0.078,0.509-0.119c0.17-0.043,0.337-0.113,0.504-0.168c0.339-0.119,0.689-0.215,1.016-0.385
					c0.168-0.074,0.336-0.15,0.506-0.225l0.253-0.113l0.244-0.143c0.321-0.191,0.657-0.371,0.974-0.574
					c0.301-0.213,0.604-0.43,0.904-0.644c0.153-0.094,0.306-0.242,0.459-0.375l0.456-0.401l0.457-0.397l0.421-0.38
					c0.597-0.546,1.197-1.077,1.779-1.582c0.596-0.491,1.204-0.934,1.771-1.36c0.144-0.107,0.286-0.208,0.423-0.31
					c0.146-0.094,0.294-0.185,0.435-0.278c0.284-0.174,0.561-0.349,0.824-0.512c0.134-0.08,0.264-0.162,0.39-0.237
					c0.136-0.07,0.267-0.135,0.394-0.2c0.255-0.133,0.499-0.25,0.728-0.356c0.458-0.224,0.894-0.356,1.233-0.476
					c0.365-0.083,0.633-0.161,0.84-0.164C60.317,43.746,60.418,43.764,60.418,43.764z"/>
				
					<radialGradient id="SVGID_00000052065672127548401130000011902012905579881379_" cx="55.459" cy="51.3166" r="7.8303" gradientUnits="userSpaceOnUse">
					<stop  offset="0.0314" style="stop-color:#F61C00"/>
					<stop  offset="1" style="stop-color:#B22000"/>
				</radialGradient>
				<path style="fill:url(#SVGID_00000052065672127548401130000011902012905579881379_);" d="M65.426,46.5
					c0,0-0.093,0.026-0.241,0.099c-0.15,0.06-0.355,0.211-0.618,0.361c-0.124,0.088-0.262,0.19-0.412,0.299
					c-0.15,0.112-0.315,0.216-0.477,0.364c-0.323,0.289-0.708,0.559-1.094,0.931c-0.194,0.172-0.397,0.356-0.608,0.546
					c-0.107,0.093-0.213,0.189-0.323,0.283c-0.105,0.104-0.214,0.208-0.321,0.315c-0.435,0.413-0.9,0.85-1.376,1.305
					c-0.463,0.469-0.95,0.947-1.454,1.422l-0.408,0.391l-0.399,0.352l-0.4,0.352c-0.138,0.117-0.256,0.238-0.428,0.35
					c-0.321,0.225-0.644,0.449-0.965,0.67c-0.326,0.203-0.67,0.363-1.001,0.543l-0.246,0.133l-0.263,0.105
					c-0.174,0.066-0.351,0.133-0.521,0.201c-0.339,0.146-0.696,0.232-1.045,0.314c-0.175,0.045-0.345,0.096-0.517,0.127
					c-0.174,0.027-0.347,0.053-0.518,0.078c-0.168,0.023-0.338,0.045-0.505,0.066c-0.165,0.01-0.331,0.016-0.495,0.024
					c-0.163,0.002-0.324,0.01-0.483,0.012c-0.159-0.01-0.313-0.018-0.469-0.025c-0.149-0.01-0.3-0.021-0.445-0.031
					c-0.146-0.016-0.289-0.041-0.427-0.057c-0.279-0.037-0.545-0.09-0.793-0.154c-0.247-0.061-0.484-0.113-0.698-0.189
					c-0.434-0.131-0.796-0.287-1.091-0.418c-0.295-0.133-0.515-0.264-0.662-0.35c-0.151-0.086-0.229-0.145-0.229-0.145l0.144-0.279
					c0,0,0.086,0.024,0.239,0.068c0.157,0.043,0.392,0.104,0.69,0.16c0.299,0.066,0.663,0.125,1.082,0.17
					c0.208,0.031,0.429,0.041,0.666,0.055c0.114,0.008,0.233,0.018,0.357,0.018c0.122-0.002,0.248-0.002,0.376,0
					c0.126,0,0.255,0.006,0.389,0c0.131-0.01,0.264-0.021,0.4-0.031c0.138-0.01,0.272-0.023,0.413-0.033
					c0.138-0.021,0.279-0.045,0.422-0.068c0.14-0.021,0.286-0.041,0.43-0.064c0.143-0.033,0.288-0.068,0.434-0.107
					c0.146-0.035,0.294-0.07,0.442-0.104c0.146-0.041,0.291-0.1,0.438-0.148c0.294-0.104,0.597-0.188,0.881-0.336
					c0.146-0.066,0.291-0.133,0.438-0.199l0.223-0.1l0.211-0.121c0.278-0.17,0.57-0.328,0.845-0.5
					c0.261-0.188,0.521-0.375,0.783-0.563c0.13-0.08,0.266-0.213,0.397-0.326l0.403-0.352l0.398-0.35l0.369-0.33
					c0.525-0.479,1.051-0.941,1.568-1.383c0.522-0.429,1.063-0.816,1.564-1.185c0.127-0.094,0.252-0.182,0.375-0.271
					c0.129-0.081,0.257-0.161,0.384-0.242c0.254-0.151,0.495-0.299,0.729-0.442c0.118-0.07,0.234-0.138,0.348-0.206
					c0.119-0.06,0.233-0.117,0.349-0.171c0.226-0.112,0.441-0.213,0.646-0.307c0.406-0.187,0.791-0.296,1.096-0.398
					c0.322-0.067,0.56-0.13,0.743-0.13C65.337,46.481,65.426,46.5,65.426,46.5z"/>
				
					<radialGradient id="SVGID_00000054238419007102608670000002938896419497101737_" cx="62.0425" cy="52.3728" r="6.3082" gradientUnits="userSpaceOnUse">
					<stop  offset="0.0314" style="stop-color:#F61C00"/>
					<stop  offset="1" style="stop-color:#B22000"/>
				</radialGradient>
				<path style="fill:url(#SVGID_00000054238419007102608670000002938896419497101737_);" d="M69.926,48.206
					c0,0-0.075,0.026-0.188,0.099c-0.115,0.055-0.274,0.192-0.472,0.328c-0.093,0.083-0.199,0.174-0.313,0.271
					c-0.112,0.094-0.239,0.187-0.36,0.317c-0.241,0.252-0.535,0.486-0.824,0.804c-0.286,0.314-0.624,0.609-0.945,0.974
					c-0.327,0.363-0.684,0.721-1.047,1.104c-0.352,0.395-0.723,0.799-1.11,1.193l-0.321,0.334l-0.31,0.293l-0.311,0.297
					c-0.106,0.1-0.195,0.199-0.333,0.297c-0.259,0.191-0.518,0.387-0.773,0.58c-0.26,0.176-0.534,0.316-0.8,0.473
					c-0.26,0.166-0.556,0.262-0.831,0.383c-0.272,0.129-0.562,0.211-0.844,0.291c-0.142,0.039-0.279,0.082-0.42,0.111
					c-0.143,0.029-0.283,0.053-0.421,0.078c-0.137,0.021-0.274,0.045-0.411,0.065c-0.137,0.012-0.271,0.021-0.406,0.031
					c-0.133,0.006-0.261,0.016-0.39,0.021c-0.13-0.002-0.258-0.006-0.383-0.01c-0.248-0.006-0.486-0.024-0.715-0.061
					c-0.227-0.023-0.443-0.061-0.646-0.109c-0.204-0.045-0.394-0.086-0.57-0.144c-0.354-0.098-0.649-0.223-0.893-0.324
					c-0.24-0.105-0.42-0.207-0.541-0.277c-0.122-0.072-0.188-0.117-0.188-0.117l0.136-0.285c0,0,0.066,0.012,0.193,0.039
					c0.13,0.027,0.318,0.059,0.562,0.088c0.241,0.035,0.537,0.064,0.873,0.078c0.166,0.016,0.343,0.012,0.53,0.012
					c0.188,0.006,0.383-0.016,0.584-0.025c0.102-0.008,0.203-0.01,0.309-0.022c0.104-0.016,0.21-0.027,0.316-0.043
					c0.108-0.012,0.216-0.027,0.327-0.043c0.107-0.021,0.217-0.045,0.331-0.068c0.108-0.023,0.223-0.047,0.336-0.07
					c0.111-0.035,0.225-0.068,0.338-0.102c0.114-0.037,0.228-0.068,0.345-0.102c0.113-0.037,0.225-0.092,0.338-0.133
					c0.228-0.094,0.462-0.174,0.682-0.303c0.111-0.057,0.224-0.117,0.337-0.172l0.171-0.088l0.16-0.104
					c0.216-0.141,0.441-0.279,0.65-0.422l0.592-0.465c0.098-0.064,0.204-0.178,0.309-0.271l0.311-0.295
					c0.197-0.191,0.394-0.377,0.591-0.564c0.41-0.4,0.824-0.785,1.229-1.156c0.412-0.357,0.84-0.684,1.24-0.99
					c0.099-0.075,0.199-0.151,0.297-0.224c0.103-0.07,0.208-0.138,0.307-0.201c0.201-0.132,0.396-0.257,0.585-0.372
					c0.095-0.06,0.188-0.115,0.278-0.169c0.095-0.05,0.188-0.097,0.281-0.143c0.182-0.094,0.357-0.177,0.521-0.255
					c0.327-0.156,0.644-0.25,0.885-0.328c0.269-0.06,0.458-0.107,0.61-0.107C69.852,48.188,69.926,48.206,69.926,48.206z"/>
				<g>
					
						<radialGradient id="SVGID_00000114782752745629122870000007408471813527789235_" cx="40.9644" cy="38.7873" r="19.0916" gradientUnits="userSpaceOnUse">
						<stop  offset="0.0314" style="stop-color:#F61C00"/>
						<stop  offset="1" style="stop-color:#B22000"/>
					</radialGradient>
					<path style="fill:url(#SVGID_00000114782752745629122870000007408471813527789235_);" d="M64.238,39.662
						c0,0-0.003-0.059-0.011-0.181c-0.005-0.121-0.014-0.298-0.036-0.526c-0.041-0.459-0.55-0.8-0.697-1.605
						c-0.15-0.798,0.068-2.072-0.366-2.987c-0.437-0.919-1.09-1.753-2.027-2.35c-0.466-0.307-1.017-0.541-1.633-0.741
						c-0.309-0.096-0.631-0.175-0.979-0.24l-0.299-0.06l-0.153-0.03l-0.125-0.018c-0.172-0.023-0.345-0.048-0.517-0.073
						c-1.467-0.175-2.994-0.049-4.491,0.482c-1.499,0.518-2.958,1.441-4.362,2.584c-1.41,1.138-2.759,2.487-4.129,3.857
						c-1.363,1.375-2.743,2.788-4.189,4.111c-1.438,1.33-2.951,2.57-4.515,3.634c-1.572,1.062-3.198,1.94-4.804,2.604
						c-0.803,0.338-1.603,0.616-2.385,0.845c-0.786,0.218-1.549,0.414-2.289,0.541c-1.479,0.281-2.851,0.406-4.06,0.423
						c-1.211,0.016-2.262-0.015-3.12-0.106c-0.858-0.083-1.526-0.171-1.984-0.247c-0.449-0.076-0.692-0.117-0.692-0.117l0.02-0.198
						c0,0,0.244,0.003,0.702,0.008c0.455,0.008,1.122,0.003,1.969-0.036c0.848-0.031,1.871-0.109,3.028-0.266
						c1.157-0.169,2.449-0.411,3.815-0.811c1.367-0.396,2.797-0.96,4.236-1.688c1.439-0.729,2.872-1.657,4.253-2.749
						c1.398-1.077,2.733-2.336,4.054-3.67c1.313-1.344,2.601-2.78,3.93-4.222c1.325-1.446,2.704-2.893,4.239-4.216
						c1.531-1.321,3.29-2.485,5.237-3.204c1.941-0.733,4.034-0.898,5.889-0.685c0.237,0.026,0.482,0.066,0.722,0.099l0.177,0.027
						l0.15,0.029l0.301,0.059c0.454,0.078,0.907,0.209,1.346,0.354c0.884,0.29,1.715,0.735,2.429,1.293
						c0.357,0.282,0.681,0.591,0.967,0.919c0.284,0.33,0.525,0.68,0.731,1.03c0.41,0.709,0.667,1.43,0.808,2.105
						c0.283,1.354,0.185,2.505,0.016,3.405c-0.174,0.902-0.424,1.57-0.623,2.01c-0.196,0.44-0.336,0.661-0.336,0.661L64.238,39.662z
						"/>
					
						<radialGradient id="SVGID_00000039094353732209967230000012512227243968241053_" cx="66.7945" cy="39.7751" r="3.4817" gradientUnits="userSpaceOnUse">
						<stop  offset="0.0314" style="stop-color:#F61C00"/>
						<stop  offset="1" style="stop-color:#B22000"/>
					</radialGradient>
					<path style="fill:url(#SVGID_00000039094353732209967230000012512227243968241053_);" d="M64.931,37.823
						c-0.006,0.008-0.004,0.016-0.023,0.078c-0.018,0.059-0.046,0.148-0.078,0.26c-0.062,0.228-0.137,0.565-0.152,0.931
						c-0.009,0.181,0.006,0.368,0.039,0.543c0.033,0.177,0.099,0.337,0.188,0.492c0.185,0.304,0.543,0.594,1.026,0.812l0.043,0.021
						l0.012,0.005l0.002,0.001c0.028,0.009-0.031-0.011-0.022-0.009l0.005,0.004l0.027,0.012l0.112,0.045l0.219,0.092
						c0.071,0.029,0.147,0.065,0.214,0.087l0.191,0.065c0.244,0.087,0.518,0.17,0.775,0.23c0.52,0.12,1.02,0.163,1.451,0.146
						c0.216-0.01,0.417-0.031,0.596-0.063c0.175-0.031,0.33-0.069,0.455-0.106c0.126-0.038,0.224-0.07,0.29-0.096
						c0.06-0.026,0.092-0.041,0.092-0.041l0.03-0.013c0.076-0.031,0.166,0.006,0.197,0.087c0.022,0.058,0.011,0.121-0.026,0.164
						c0,0-0.029,0.036-0.087,0.104c-0.056,0.06-0.138,0.152-0.257,0.25c-0.119,0.099-0.266,0.216-0.45,0.321
						c-0.183,0.113-0.402,0.22-0.65,0.311c-0.246,0.096-0.524,0.174-0.821,0.224c-0.3,0.055-0.619,0.086-0.951,0.081
						c-0.33-0.005-0.663-0.018-1.021-0.088l-0.267-0.049c-0.088-0.016-0.156-0.037-0.234-0.055l-0.232-0.055l-0.115-0.029
						l-0.029-0.008h-0.01l-0.033-0.013l-0.019-0.008l-0.064-0.021c-0.353-0.12-0.712-0.287-1.046-0.521
						c-0.336-0.235-0.64-0.55-0.868-0.911c-0.235-0.359-0.366-0.768-0.43-1.143c-0.066-0.377-0.056-0.727-0.021-1.034
						c0.078-0.614,0.26-1.06,0.401-1.362c0.068-0.152,0.137-0.267,0.184-0.348c0.052-0.084,0.081-0.131,0.081-0.131l0.032-0.052
						c0.217-0.35,0.67-0.453,1.008-0.228C65.022,37.027,65.124,37.476,64.931,37.823z"/>
				</g>
			</g>
			<g>
				
					<radialGradient id="SVGID_00000010286654734117812830000008127238184713641627_" cx="106.0127" cy="45.0454" r="10.5216" gradientUnits="userSpaceOnUse">
					<stop  offset="0.0314" style="stop-color:#F61C00"/>
					<stop  offset="1" style="stop-color:#B22000"/>
				</radialGradient>
				<path style="fill:url(#SVGID_00000010286654734117812830000008127238184713641627_);" d="M92.573,38.665
					c0,0,0.122,0.024,0.326,0.117c0.208,0.066,0.493,0.257,0.855,0.442c0.169,0.117,0.361,0.246,0.569,0.386
					c0.21,0.139,0.438,0.273,0.661,0.463c0.226,0.18,0.469,0.372,0.727,0.563c0.13,0.098,0.263,0.194,0.395,0.3
					c0.128,0.112,0.26,0.227,0.394,0.343c0.267,0.237,0.55,0.476,0.844,0.723c0.144,0.124,0.293,0.247,0.443,0.375
					c0.145,0.136,0.292,0.276,0.439,0.414c0.596,0.562,1.241,1.124,1.889,1.74c0.633,0.625,1.295,1.267,1.975,1.909
					c0.175,0.167,0.352,0.33,0.527,0.5l0.525,0.483c0.166,0.161,0.374,0.328,0.569,0.492c0.196,0.163,0.392,0.335,0.596,0.481
					c0.797,0.611,1.66,1.145,2.557,1.582c0.896,0.437,1.817,0.791,2.736,1.027c0.921,0.232,1.83,0.365,2.694,0.414
					c0.865,0.039,1.682-0.008,2.422-0.102c1.486-0.201,2.667-0.604,3.456-0.939c0.396-0.171,0.697-0.328,0.9-0.439
					c0.201-0.112,0.308-0.183,0.308-0.183c0.073-0.049,0.093-0.146,0.046-0.218c-0.043-0.065-0.121-0.088-0.188-0.062h-0.004
					c0,0-0.104,0.039-0.317,0.104c-0.21,0.07-0.523,0.156-0.924,0.252c-0.802,0.189-1.966,0.4-3.355,0.421
					c-0.696,0.016-1.443-0.023-2.228-0.133c-0.779-0.099-1.59-0.278-2.399-0.543c-0.812-0.263-1.627-0.598-2.415-1.024
					c-0.782-0.432-1.557-0.916-2.275-1.485c-0.188-0.135-0.353-0.281-0.525-0.421c-0.172-0.146-0.345-0.276-0.521-0.45
					c-0.35-0.317-0.698-0.637-1.043-0.952c-0.706-0.645-1.406-1.269-2.092-1.867c-0.698-0.588-1.412-1.114-2.074-1.621
					c-0.169-0.125-0.334-0.249-0.495-0.371c-0.172-0.11-0.341-0.222-0.507-0.33c-0.332-0.215-0.653-0.423-0.967-0.614
					c-0.154-0.098-0.307-0.192-0.453-0.285c-0.154-0.087-0.309-0.166-0.458-0.244c-0.295-0.16-0.581-0.302-0.847-0.434
					c-0.262-0.143-0.532-0.236-0.772-0.335c-0.242-0.094-0.464-0.177-0.664-0.249c-0.426-0.105-0.743-0.207-0.982-0.214
					C92.691,38.645,92.573,38.665,92.573,38.665z"/>
				
					<radialGradient id="SVGID_00000098189233241053980780000000585559487495436447_" cx="99.9697" cy="47.1097" r="10.1629" gradientUnits="userSpaceOnUse">
					<stop  offset="0.0314" style="stop-color:#F61C00"/>
					<stop  offset="1" style="stop-color:#B22000"/>
				</radialGradient>
				<path style="fill:url(#SVGID_00000098189233241053980780000000585559487495436447_);" d="M86.998,40.926
					c0,0,0.119,0.025,0.319,0.114c0.196,0.065,0.473,0.252,0.821,0.432c0.167,0.111,0.351,0.239,0.553,0.374
					c0.199,0.138,0.42,0.266,0.635,0.45c0.223,0.177,0.455,0.362,0.705,0.547c0.123,0.096,0.251,0.192,0.379,0.291
					c0.125,0.112,0.25,0.221,0.382,0.335c0.256,0.231,0.53,0.463,0.81,0.7c0.141,0.122,0.285,0.245,0.432,0.364
					c0.14,0.132,0.281,0.265,0.424,0.4c0.58,0.536,1.19,1.1,1.823,1.685c0.614,0.606,1.252,1.228,1.909,1.849
					c0.169,0.162,0.339,0.323,0.511,0.481l0.509,0.473c0.161,0.156,0.361,0.317,0.549,0.473c0.192,0.156,0.381,0.325,0.58,0.465
					c0.771,0.594,1.61,1.111,2.476,1.537c0.866,0.43,1.763,0.76,2.656,0.99c0.889,0.223,1.773,0.35,2.61,0.396
					c0.837,0.039,1.628-0.01,2.346-0.102c1.44-0.195,2.581-0.588,3.346-0.918c0.384-0.164,0.674-0.32,0.871-0.426
					c0.195-0.107,0.299-0.18,0.299-0.18l-0.146-0.275c0,0-0.104,0.033-0.31,0.098c-0.202,0.065-0.506,0.149-0.894,0.24
					c-0.776,0.182-1.901,0.379-3.245,0.395c-0.673,0.016-1.397-0.023-2.15-0.127c-0.754-0.1-1.536-0.271-2.318-0.531
					c-0.784-0.252-1.566-0.588-2.33-0.996c-0.756-0.411-1.503-0.878-2.196-1.427c-0.182-0.133-0.342-0.273-0.51-0.411
					c-0.166-0.141-0.33-0.265-0.503-0.429c-0.337-0.31-0.674-0.619-1.008-0.923c-0.683-0.626-1.364-1.228-2.024-1.807
					c-0.677-0.567-1.369-1.077-2.011-1.566c-0.162-0.12-0.323-0.239-0.479-0.359c-0.168-0.104-0.33-0.213-0.493-0.317
					c-0.323-0.205-0.632-0.408-0.934-0.593c-0.151-0.094-0.298-0.185-0.443-0.275c-0.149-0.078-0.298-0.159-0.443-0.235
					c-0.285-0.151-0.561-0.289-0.821-0.419c-0.516-0.256-1.009-0.415-1.393-0.559c-0.412-0.102-0.72-0.198-0.951-0.203
					C87.114,40.908,86.998,40.926,86.998,40.926z"/>
				
					<radialGradient id="SVGID_00000060020439528529624400000016649979307777372089_" cx="94.9365" cy="49.2125" r="8.9081" gradientUnits="userSpaceOnUse">
					<stop  offset="0.0314" style="stop-color:#F61C00"/>
					<stop  offset="1" style="stop-color:#B22000"/>
				</radialGradient>
				<path style="fill:url(#SVGID_00000060020439528529624400000016649979307777372089_);" d="M83.581,43.764
					c0,0,0.104,0.026,0.274,0.109c0.173,0.06,0.412,0.226,0.714,0.39c0.145,0.102,0.305,0.216,0.476,0.338
					c0.175,0.12,0.367,0.237,0.552,0.403c0.373,0.322,0.821,0.624,1.264,1.04c0.226,0.2,0.459,0.406,0.704,0.619
					c0.12,0.106,0.247,0.213,0.371,0.322c0.121,0.115,0.245,0.231,0.37,0.354c0.503,0.468,1.033,0.965,1.579,1.477
					c0.535,0.533,1.093,1.077,1.666,1.621c0.155,0.148,0.31,0.291,0.466,0.439l0.454,0.4l0.457,0.402
					c0.155,0.133,0.292,0.271,0.485,0.396c0.361,0.252,0.725,0.504,1.087,0.754c0.368,0.23,0.756,0.414,1.129,0.619l0.28,0.148
					l0.294,0.119c0.198,0.076,0.394,0.152,0.588,0.229c0.385,0.164,0.787,0.266,1.181,0.365c0.198,0.045,0.388,0.104,0.584,0.139
					c0.195,0.029,0.392,0.059,0.583,0.09c0.192,0.025,0.385,0.055,0.57,0.08c0.191,0.01,0.379,0.021,0.564,0.031
					c0.183,0.006,0.363,0.014,0.544,0.018c0.178-0.008,0.354-0.018,0.525-0.027c0.173-0.012,0.342-0.019,0.51-0.027
					c0.166-0.018,0.326-0.041,0.483-0.063c0.316-0.039,0.616-0.094,0.897-0.166c0.283-0.064,0.549-0.121,0.794-0.205
					c0.493-0.141,0.907-0.314,1.242-0.461c0.337-0.145,0.587-0.285,0.76-0.381c0.17-0.1,0.263-0.16,0.263-0.16l-0.147-0.281
					c0,0-0.094,0.029-0.271,0.082c-0.18,0.055-0.445,0.127-0.785,0.199c-0.34,0.076-0.756,0.148-1.231,0.209
					c-0.238,0.039-0.494,0.055-0.762,0.072c-0.133,0.008-0.271,0.023-0.408,0.023c-0.143,0-0.286,0-0.433,0.006
					c-0.146,0-0.295,0.008-0.445,0.004c-0.149-0.012-0.305-0.023-0.461-0.033c-0.154-0.01-0.315-0.021-0.475-0.031
					c-0.158-0.025-0.32-0.049-0.484-0.076c-0.163-0.02-0.329-0.045-0.498-0.064c-0.163-0.039-0.33-0.078-0.498-0.119
					c-0.169-0.039-0.337-0.078-0.506-0.119c-0.173-0.043-0.34-0.113-0.508-0.168c-0.336-0.119-0.688-0.215-1.015-0.385
					c-0.167-0.074-0.335-0.15-0.504-0.225l-0.255-0.113l-0.244-0.143c-0.321-0.191-0.658-0.371-0.973-0.574
					c-0.301-0.213-0.604-0.43-0.902-0.644c-0.153-0.094-0.309-0.242-0.462-0.375l-0.458-0.401l-0.455-0.397l-0.42-0.38
					c-0.598-0.546-1.197-1.077-1.78-1.582c-0.594-0.491-1.205-0.934-1.771-1.36c-0.144-0.107-0.285-0.208-0.423-0.31
					c-0.146-0.094-0.291-0.185-0.435-0.278c-0.283-0.174-0.559-0.349-0.824-0.512c-0.133-0.08-0.264-0.162-0.388-0.237
					c-0.137-0.07-0.268-0.135-0.394-0.2c-0.257-0.133-0.501-0.25-0.729-0.356c-0.455-0.224-0.893-0.356-1.233-0.476
					c-0.362-0.083-0.633-0.161-0.838-0.164C83.682,43.746,83.581,43.764,83.581,43.764z"/>
				
					<radialGradient id="SVGID_00000020368909592786549020000009462242669372340658_" cx="88.5419" cy="51.3166" r="7.8315" gradientUnits="userSpaceOnUse">
					<stop  offset="0.0314" style="stop-color:#F61C00"/>
					<stop  offset="1" style="stop-color:#B22000"/>
				</radialGradient>
				<path style="fill:url(#SVGID_00000020368909592786549020000009462242669372340658_);" d="M78.573,46.5
					c0,0,0.094,0.026,0.243,0.099c0.148,0.06,0.355,0.211,0.616,0.361c0.125,0.088,0.263,0.19,0.412,0.299
					c0.151,0.112,0.315,0.216,0.478,0.364c0.322,0.289,0.71,0.559,1.094,0.931c0.195,0.172,0.397,0.356,0.607,0.546
					c0.109,0.093,0.216,0.189,0.325,0.283c0.104,0.104,0.212,0.208,0.321,0.315c0.436,0.413,0.896,0.85,1.374,1.305
					c0.467,0.469,0.95,0.947,1.452,1.422l0.41,0.391l0.401,0.352l0.399,0.352c0.137,0.117,0.255,0.238,0.428,0.35
					c0.321,0.225,0.645,0.449,0.964,0.67c0.329,0.203,0.671,0.363,1.001,0.543l0.248,0.133l0.263,0.105
					c0.174,0.066,0.349,0.133,0.52,0.201c0.341,0.146,0.696,0.232,1.044,0.314c0.176,0.045,0.346,0.096,0.518,0.127
					c0.176,0.027,0.349,0.053,0.519,0.078c0.169,0.023,0.338,0.045,0.505,0.066c0.168,0.01,0.333,0.016,0.495,0.024
					c0.163,0.002,0.324,0.01,0.484,0.012c0.158-0.01,0.313-0.018,0.465-0.025c0.151-0.01,0.303-0.021,0.447-0.031
					c0.147-0.016,0.29-0.041,0.43-0.057c0.279-0.037,0.543-0.09,0.79-0.154c0.25-0.061,0.484-0.113,0.698-0.189
					c0.434-0.131,0.796-0.287,1.092-0.418c0.295-0.133,0.513-0.264,0.665-0.35c0.144-0.086,0.229-0.145,0.229-0.145l-0.146-0.279
					c0,0-0.083,0.024-0.238,0.068c-0.159,0.043-0.391,0.104-0.689,0.16c-0.301,0.066-0.666,0.125-1.083,0.17
					c-0.206,0.031-0.43,0.041-0.664,0.055c-0.118,0.008-0.235,0.018-0.357,0.018c-0.125-0.002-0.249-0.002-0.376,0
					c-0.13,0-0.257,0.006-0.39,0c-0.13-0.01-0.267-0.021-0.403-0.031c-0.134-0.01-0.274-0.023-0.412-0.033
					c-0.139-0.021-0.281-0.045-0.423-0.068c-0.14-0.021-0.283-0.041-0.43-0.064c-0.142-0.033-0.288-0.068-0.432-0.107
					c-0.147-0.035-0.294-0.07-0.442-0.104c-0.147-0.041-0.291-0.1-0.439-0.148c-0.293-0.104-0.596-0.188-0.881-0.336
					c-0.146-0.066-0.291-0.133-0.437-0.199l-0.224-0.1l-0.21-0.121c-0.279-0.17-0.571-0.328-0.846-0.5
					c-0.259-0.188-0.521-0.375-0.779-0.563c-0.133-0.08-0.27-0.213-0.401-0.326l-0.402-0.352l-0.399-0.35l-0.366-0.33
					c-0.526-0.479-1.054-0.941-1.568-1.383c-0.526-0.429-1.066-0.816-1.567-1.185c-0.127-0.094-0.252-0.182-0.373-0.271
					c-0.131-0.081-0.259-0.161-0.384-0.242c-0.253-0.151-0.498-0.299-0.732-0.442c-0.119-0.07-0.233-0.138-0.345-0.206
					c-0.119-0.06-0.234-0.117-0.348-0.171c-0.228-0.112-0.444-0.213-0.649-0.307c-0.404-0.187-0.791-0.296-1.093-0.398
					c-0.323-0.067-0.563-0.13-0.746-0.13C78.664,46.481,78.573,46.5,78.573,46.5z"/>
				
					<radialGradient id="SVGID_00000008862245634817800530000006080550248242915227_" cx="81.9565" cy="52.3728" r="6.3082" gradientUnits="userSpaceOnUse">
					<stop  offset="0.0314" style="stop-color:#F61C00"/>
					<stop  offset="1" style="stop-color:#B22000"/>
				</radialGradient>
				<path style="fill:url(#SVGID_00000008862245634817800530000006080550248242915227_);" d="M74.073,48.206
					c0,0,0.075,0.026,0.191,0.099c0.115,0.055,0.272,0.192,0.471,0.328c0.094,0.083,0.199,0.174,0.313,0.271
					c0.113,0.094,0.238,0.187,0.359,0.317c0.24,0.252,0.534,0.486,0.824,0.804c0.286,0.314,0.623,0.609,0.946,0.974
					c0.327,0.363,0.685,0.721,1.045,1.104c0.353,0.395,0.724,0.799,1.11,1.193l0.321,0.334l0.31,0.293l0.311,0.297
					c0.106,0.1,0.197,0.199,0.335,0.297c0.258,0.191,0.516,0.387,0.771,0.58c0.263,0.176,0.534,0.316,0.803,0.473
					c0.257,0.166,0.555,0.262,0.828,0.383c0.276,0.129,0.563,0.211,0.844,0.291c0.143,0.039,0.281,0.082,0.421,0.111
					c0.144,0.029,0.282,0.053,0.42,0.078c0.141,0.021,0.277,0.045,0.411,0.065c0.138,0.012,0.272,0.021,0.406,0.031
					c0.133,0.006,0.263,0.016,0.393,0.021c0.129-0.002,0.256-0.006,0.378-0.01c0.251-0.006,0.489-0.024,0.717-0.061
					c0.23-0.023,0.444-0.061,0.647-0.109c0.204-0.045,0.393-0.086,0.569-0.144c0.356-0.098,0.651-0.223,0.893-0.324
					c0.24-0.105,0.42-0.207,0.543-0.277c0.121-0.072,0.187-0.117,0.187-0.117l-0.134-0.285c0,0-0.068,0.012-0.192,0.039
					c-0.129,0.027-0.321,0.059-0.563,0.088c-0.243,0.035-0.538,0.064-0.872,0.078c-0.167,0.016-0.348,0.012-0.532,0.012
					c-0.185,0.006-0.381-0.016-0.585-0.025c-0.099-0.008-0.203-0.01-0.31-0.022c-0.102-0.016-0.207-0.027-0.315-0.043
					c-0.105-0.012-0.216-0.027-0.325-0.043c-0.108-0.021-0.219-0.045-0.331-0.068c-0.108-0.023-0.222-0.047-0.335-0.07
					c-0.112-0.035-0.227-0.068-0.34-0.102c-0.112-0.037-0.229-0.068-0.343-0.102c-0.114-0.037-0.227-0.092-0.341-0.133
					c-0.225-0.094-0.462-0.174-0.682-0.303c-0.111-0.057-0.222-0.117-0.335-0.172l-0.171-0.088l-0.162-0.104
					c-0.214-0.141-0.438-0.279-0.646-0.422l-0.596-0.465c-0.098-0.064-0.205-0.178-0.307-0.271l-0.313-0.295
					c-0.197-0.191-0.396-0.377-0.59-0.564c-0.409-0.4-0.825-0.785-1.229-1.156c-0.412-0.357-0.84-0.684-1.237-0.99
					c-0.102-0.075-0.199-0.151-0.298-0.224c-0.104-0.07-0.206-0.138-0.308-0.201c-0.202-0.132-0.396-0.257-0.586-0.372
					c-0.097-0.06-0.187-0.115-0.278-0.169c-0.094-0.05-0.187-0.097-0.279-0.143c-0.181-0.094-0.359-0.177-0.521-0.255
					c-0.329-0.156-0.643-0.25-0.887-0.328c-0.266-0.06-0.458-0.107-0.61-0.107C74.146,48.188,74.073,48.206,74.073,48.206z"/>
				<g>
					
						<radialGradient id="SVGID_00000112631812528782386820000015070121572211657609_" cx="103.0351" cy="38.7873" r="19.0913" gradientUnits="userSpaceOnUse">
						<stop  offset="0.0314" style="stop-color:#F61C00"/>
						<stop  offset="1" style="stop-color:#B22000"/>
					</radialGradient>
					<path style="fill:url(#SVGID_00000112631812528782386820000015070121572211657609_);" d="M79.761,39.662
						c0,0,0.004-0.059,0.011-0.181c0.008-0.121,0.016-0.298,0.036-0.526c0.041-0.459,0.55-0.8,0.698-1.605
						c0.15-0.798-0.069-2.072,0.369-2.987c0.435-0.919,1.089-1.753,2.023-2.35c0.467-0.307,1.019-0.541,1.633-0.741
						c0.311-0.096,0.633-0.175,0.982-0.24l0.298-0.06l0.151-0.03l0.128-0.018c0.169-0.023,0.342-0.048,0.515-0.073
						c1.467-0.175,2.995-0.049,4.49,0.482c1.499,0.518,2.96,1.441,4.364,2.584c1.411,1.138,2.758,2.487,4.127,3.857
						c1.364,1.375,2.744,2.788,4.189,4.111c1.438,1.33,2.949,2.57,4.517,3.634c1.57,1.062,3.197,1.94,4.804,2.604
						c0.801,0.338,1.601,0.616,2.382,0.845c0.787,0.218,1.549,0.414,2.291,0.541c1.479,0.281,2.85,0.406,4.06,0.423
						c1.212,0.016,2.261-0.015,3.121-0.106c0.855-0.083,1.528-0.171,1.98-0.247c0.454-0.076,0.694-0.117,0.694-0.117l-0.02-0.198
						c0,0-0.241,0.003-0.699,0.008c-0.457,0.008-1.125,0.003-1.97-0.036c-0.847-0.031-1.873-0.109-3.03-0.266
						c-1.157-0.169-2.45-0.411-3.815-0.811c-1.365-0.396-2.797-0.96-4.236-1.688c-1.439-0.729-2.871-1.657-4.254-2.749
						c-1.397-1.077-2.731-2.336-4.05-3.67c-1.315-1.344-2.603-2.78-3.933-4.222c-1.323-1.446-2.703-2.893-4.239-4.216
						c-1.53-1.321-3.288-2.485-5.235-3.204c-1.942-0.733-4.032-0.898-5.889-0.685c-0.239,0.026-0.484,0.066-0.721,0.099
						l-0.181,0.027l-0.149,0.029l-0.301,0.059c-0.452,0.078-0.906,0.209-1.346,0.354c-0.883,0.29-1.715,0.735-2.429,1.293
						c-0.355,0.282-0.681,0.591-0.965,0.919c-0.282,0.33-0.525,0.68-0.733,1.03c-0.408,0.709-0.667,1.43-0.806,2.105
						c-0.285,1.354-0.185,2.505-0.019,3.405c0.175,0.902,0.425,1.57,0.624,2.01c0.196,0.44,0.337,0.661,0.337,0.661L79.761,39.662z"
						/>
					
						<radialGradient id="SVGID_00000136374142928427904940000009249493469532111780_" cx="77.2055" cy="39.7751" r="3.4814" gradientUnits="userSpaceOnUse">
						<stop  offset="0.0314" style="stop-color:#F61C00"/>
						<stop  offset="1" style="stop-color:#B22000"/>
					</radialGradient>
					<path style="fill:url(#SVGID_00000136374142928427904940000009249493469532111780_);" d="M79.071,37.823
						c0.006,0.008,0.002,0.016,0.023,0.078c0.017,0.059,0.044,0.148,0.076,0.26c0.063,0.228,0.137,0.565,0.153,0.931
						c0.01,0.181-0.006,0.368-0.04,0.543c-0.032,0.177-0.098,0.337-0.188,0.492c-0.181,0.304-0.541,0.594-1.023,0.812l-0.045,0.021
						l-0.011,0.005l-0.003,0.001c-0.025,0.009,0.033-0.011,0.026-0.009l-0.009,0.004l-0.027,0.012l-0.109,0.045l-0.222,0.092
						c-0.069,0.029-0.147,0.065-0.213,0.087l-0.189,0.065c-0.247,0.087-0.521,0.17-0.776,0.23c-0.521,0.12-1.02,0.163-1.453,0.146
						c-0.216-0.01-0.414-0.031-0.593-0.063c-0.177-0.031-0.33-0.069-0.456-0.106c-0.124-0.038-0.226-0.07-0.29-0.096
						c-0.06-0.026-0.093-0.041-0.093-0.041l-0.029-0.013c-0.078-0.031-0.167,0.006-0.199,0.087
						c-0.021,0.058-0.009,0.121,0.026,0.164c0,0,0.029,0.036,0.089,0.104c0.057,0.06,0.136,0.152,0.255,0.25
						c0.119,0.099,0.267,0.216,0.453,0.321c0.181,0.113,0.399,0.22,0.647,0.311c0.246,0.096,0.524,0.174,0.822,0.224
						c0.3,0.055,0.618,0.086,0.95,0.081c0.33-0.005,0.663-0.018,1.021-0.088l0.269-0.049c0.086-0.016,0.156-0.037,0.233-0.055
						l0.231-0.055l0.119-0.029l0.025-0.008h0.01l0.033-0.013l0.019-0.008l0.066-0.021c0.353-0.12,0.71-0.287,1.045-0.521
						c0.335-0.235,0.639-0.55,0.87-0.911c0.234-0.359,0.363-0.768,0.428-1.143c0.066-0.377,0.055-0.727,0.02-1.034
						c-0.076-0.614-0.259-1.06-0.398-1.362c-0.071-0.152-0.138-0.267-0.186-0.348c-0.052-0.084-0.082-0.131-0.082-0.131
						l-0.031-0.052c-0.218-0.35-0.671-0.453-1.009-0.228C78.977,37.027,78.875,37.476,79.071,37.823z"/>
				</g>
			</g>
			<g>
				
					<radialGradient id="SVGID_00000173855778600197992610000009272557881637845641_" cx="72.7286" cy="65.7555" r="9.2345" gradientUnits="userSpaceOnUse">
					<stop  offset="0.0314" style="stop-color:#F61C00"/>
					<stop  offset="1" style="stop-color:#B22000"/>
				</radialGradient>
				<path style="fill:url(#SVGID_00000173855778600197992610000009272557881637845641_);" d="M77.515,55.08
					c0,0,0.021,0.023,0.062,0.072c0.051,0.061,0.139,0.16,0.212,0.26c0.161,0.211,0.373,0.518,0.612,0.934
					c0.234,0.416,0.489,0.951,0.687,1.623c0.195,0.668,0.301,1.529,0.134,2.449c-0.163,0.916-0.626,1.852-1.288,2.545
					c-0.153,0.186-0.341,0.322-0.516,0.488c-0.085,0.078-0.175,0.156-0.265,0.234l-0.034,0.027l-0.017,0.016
					c-0.101,0.082-0.031,0.027-0.056,0.045l-0.01,0.006l-0.061,0.041l-0.121,0.084c-0.164,0.111-0.328,0.223-0.494,0.338
					c-0.209,0.121-0.423,0.242-0.638,0.365c-0.84,0.449-1.695,0.764-2.559,1.02c-0.858,0.258-1.701,0.461-2.479,0.721
					c-0.773,0.26-1.474,0.588-2.027,1.072c-0.554,0.484-0.966,1.123-1.252,1.826l-0.016,0.033l-0.008,0.016
					c-0.001,0.01,0.016-0.061,0.006-0.023l-0.002,0.008l-0.022,0.072l-0.045,0.146l-0.092,0.291
					c-0.025,0.096-0.061,0.191-0.083,0.285l-0.044,0.258c-0.022,0.174-0.073,0.338-0.077,0.518
					c-0.009,0.182-0.016,0.359-0.025,0.533c0.017,0.707,0.128,1.381,0.326,1.986c0.2,0.602,0.435,1.148,0.698,1.604
					c0.252,0.459,0.513,0.842,0.737,1.146c0.455,0.611,0.768,0.92,0.768,0.92s-0.349-0.268-0.881-0.824
					c-0.264-0.277-0.575-0.635-0.891-1.074c-0.326-0.434-0.641-0.965-0.931-1.578c-0.287-0.617-0.503-1.332-0.622-2.123
					c-0.012-0.201-0.028-0.404-0.045-0.607c-0.018-0.205,0.01-0.426,0.017-0.648c0.008-0.109,0.013-0.221,0.022-0.334
					c0.013-0.102,0.032-0.199,0.051-0.297l0.052-0.299l0.027-0.152l0.015-0.074l0.001-0.012c-0.007,0.029,0.015-0.047,0.013-0.043
					l0.006-0.018l0.012-0.039c0.229-0.852,0.637-1.74,1.301-2.477c0.657-0.744,1.523-1.275,2.359-1.676
					c0.845-0.4,1.675-0.709,2.435-1.043c0.753-0.326,1.455-0.703,2.017-1.1c0.132-0.096,0.264-0.191,0.393-0.289
					c0.151-0.133,0.302-0.262,0.45-0.395l0.109-0.096l0.056-0.051l0.008-0.002c-0.02,0.016,0.052-0.047-0.042,0.031l0.008-0.01
					l0.02-0.021l0.148-0.174c0.088-0.117,0.211-0.219,0.272-0.336c0.329-0.449,0.431-0.877,0.45-1.25
					c0.012-0.381-0.07-0.744-0.222-1.08c-0.152-0.33-0.332-0.625-0.505-0.854c-0.177-0.229-0.332-0.402-0.435-0.502
					c-0.056-0.059-0.079-0.072-0.096-0.09c-0.031-0.031-0.05-0.047-0.05-0.047l-0.007-0.008c-0.696-0.641-0.742-1.73-0.098-2.424
					c0.642-0.697,1.728-0.742,2.422-0.098C77.42,54.975,77.474,55.027,77.515,55.08z"/>
				
					<radialGradient id="SVGID_00000106849358113432986810000007176672371078808496_" cx="67.1776" cy="58.8524" r="4.4073" gradientUnits="userSpaceOnUse">
					<stop  offset="0.0314" style="stop-color:#F61C00"/>
					<stop  offset="1" style="stop-color:#B22000"/>
				</radialGradient>
				<path style="fill:url(#SVGID_00000106849358113432986810000007176672371078808496_);" d="M68.226,56.715
					c0.002,0-0.041,0.039-0.074,0.063c-0.037,0.025-0.124,0.107-0.216,0.197c-0.098,0.092-0.215,0.211-0.342,0.353
					c-0.131,0.145-0.27,0.311-0.413,0.492c-0.14,0.189-0.283,0.393-0.417,0.613c-0.07,0.113-0.122,0.225-0.188,0.342
					c-0.062,0.117-0.102,0.234-0.161,0.359c-0.047,0.119-0.077,0.24-0.122,0.369c-0.025,0.125-0.047,0.246-0.072,0.373
					c0.004,0.121-0.021,0.25-0.009,0.373l0.023,0.189c0.007,0.063,0.011,0.127,0.035,0.188l0.062,0.188l0.027,0.098l0.002,0.006
					h0.002c-0.012-0.016,0.027,0.041-0.025-0.033l0.007,0.016l0.017,0.031l0.034,0.063l0.138,0.246l0.066,0.123l0.059,0.09
					c0.142,0.232,0.341,0.5,0.557,0.719c0.109,0.111,0.217,0.223,0.337,0.32c0.114,0.102,0.232,0.193,0.356,0.277
					c0.237,0.178,0.486,0.322,0.722,0.441c0.474,0.248,0.911,0.391,1.218,0.477c0.152,0.041,0.275,0.068,0.36,0.086
					c0.079,0.016,0.124,0.025,0.124,0.025l0.014,0.004c0.087,0.016,0.142,0.096,0.127,0.182c-0.014,0.072-0.071,0.121-0.141,0.127
					c0,0-0.052,0.008-0.144,0.016c-0.093,0.008-0.228,0.01-0.4,0.016c-0.343,0-0.835-0.023-1.426-0.145
					c-0.295-0.063-0.616-0.146-0.945-0.27c-0.169-0.057-0.339-0.127-0.507-0.209c-0.175-0.076-0.345-0.172-0.517-0.273
					c-0.345-0.197-0.676-0.438-1.021-0.76l-0.128-0.117l-0.098-0.1l-0.197-0.199l-0.048-0.049l-0.025-0.027l-0.013-0.01l-0.04-0.061
					l-0.108-0.148l-0.209-0.303c-0.077-0.102-0.128-0.217-0.179-0.33l-0.153-0.348c-0.095-0.236-0.143-0.479-0.205-0.723
					c-0.039-0.238-0.065-0.482-0.085-0.723c0.002-0.229-0.001-0.469,0.016-0.691c0.027-0.217,0.046-0.441,0.085-0.648
					c0.043-0.199,0.082-0.408,0.133-0.596c0.099-0.379,0.22-0.727,0.338-1.039c0.123-0.311,0.248-0.59,0.365-0.83
					c0.122-0.242,0.231-0.449,0.332-0.621c0.097-0.172,0.171-0.299,0.245-0.408c0.063-0.094,0.097-0.141,0.097-0.141
					c0.555-0.838,1.68-1.064,2.515-0.508c0.834,0.555,1.06,1.678,0.506,2.512c-0.077,0.117-0.165,0.223-0.266,0.316L68.226,56.715z"
					/>
				
					<radialGradient id="SVGID_00000156571345022634698030000000075308890380218025_" cx="72.3904" cy="77.5898" r="9.986" gradientUnits="userSpaceOnUse">
					<stop  offset="0.0314" style="stop-color:#F61C00"/>
					<stop  offset="1" style="stop-color:#B22000"/>
				</radialGradient>
				<path style="fill:url(#SVGID_00000156571345022634698030000000075308890380218025_);" d="M77.662,65.027
					c0,0,0.086,0.104,0.204,0.297c0.122,0.195,0.283,0.494,0.443,0.891c0.15,0.4,0.307,0.906,0.372,1.502
					c0.071,0.596,0.056,1.283-0.093,2.012c-0.143,0.727-0.438,1.482-0.841,2.225c-0.407,0.744-0.945,1.459-1.559,2.135
					c-0.309,0.34-0.636,0.664-0.981,0.99c-0.166,0.154-0.342,0.311-0.525,0.467c-0.185,0.152-0.366,0.307-0.554,0.451
					c-0.748,0.596-1.542,1.145-2.318,1.684c-0.776,0.539-1.536,1.076-2.188,1.67c-0.653,0.596-1.187,1.254-1.524,1.965
					c-0.341,0.713-0.521,1.479-0.557,2.219c-0.041,0.695,0.078,1.377,0.289,1.945c0.212,0.578,0.515,1.066,0.829,1.465
					c0.315,0.4,0.641,0.713,0.922,0.949c0.57,0.479,0.947,0.662,0.907,0.643c0.433,0.244,0.586,0.787,0.344,1.223
					c-0.243,0.428-0.788,0.582-1.217,0.342c-0.039-0.023-0.507-0.291-1.185-0.914c-0.336-0.314-0.722-0.727-1.099-1.252
					c-0.374-0.529-0.74-1.18-0.983-1.955c-0.239-0.775-0.353-1.652-0.254-2.582c0.09-0.885,0.351-1.818,0.823-2.689
					c0.47-0.875,1.161-1.633,1.924-2.258c0.76-0.629,1.581-1.15,2.387-1.654c0.808-0.504,1.604-0.996,2.348-1.531
					c0.185-0.131,0.368-0.266,0.547-0.404c0.175-0.135,0.352-0.271,0.527-0.424c0.334-0.285,0.665-0.584,0.971-0.889
					c0.611-0.611,1.145-1.256,1.556-1.924c0.411-0.672,0.714-1.355,0.88-2.02c0.171-0.66,0.215-1.291,0.173-1.846
					c-0.031-0.557-0.151-1.033-0.276-1.412c-0.132-0.379-0.269-0.666-0.372-0.854c-0.105-0.19-0.168-0.275-0.168-0.275
					c-0.053-0.068-0.036-0.166,0.032-0.219c0.069-0.051,0.163-0.039,0.216,0.029H77.662z"/>
				
					<radialGradient id="SVGID_00000128482358080359507610000018181452633572026241_" cx="72.856" cy="90.2411" r="10.3099" gradientUnits="userSpaceOnUse">
					<stop  offset="0.0314" style="stop-color:#F61C00"/>
					<stop  offset="1" style="stop-color:#B22000"/>
				</radialGradient>
				<path style="fill:url(#SVGID_00000128482358080359507610000018181452633572026241_);" d="M74.651,76.996
					c0,0,0.372,0.371,0.944,1.078c0.565,0.707,1.354,1.754,2.076,3.152c0.356,0.703,0.693,1.496,0.923,2.385
					c0.224,0.885,0.34,1.873,0.179,2.893c-0.154,1.016-0.616,2.031-1.314,2.855c-0.351,0.418-0.74,0.783-1.16,1.121
					c-0.422,0.344-0.86,0.639-1.314,0.92c-0.905,0.557-1.848,1.014-2.741,1.477c-0.892,0.461-1.742,0.93-2.419,1.498
					c-0.681,0.561-1.136,1.229-1.334,1.943c-0.055,0.172-0.09,0.377-0.113,0.527c-0.013,0.107-0.025,0.215-0.038,0.318
					c-0.004,0.086-0.007,0.172-0.011,0.254c-0.007,0.359,0.024,0.709,0.091,1.027c0.133,0.65,0.402,1.203,0.703,1.65
					c0.309,0.447,0.643,0.801,0.938,1.066c0.6,0.527,1.015,0.725,0.972,0.703c0.428,0.24,0.58,0.783,0.34,1.213
					c-0.238,0.43-0.783,0.582-1.211,0.34c-0.038-0.025-0.553-0.309-1.273-1.021c-0.355-0.355-0.763-0.818-1.135-1.43
					c-0.367-0.611-0.69-1.377-0.823-2.258c-0.064-0.439-0.083-0.9-0.048-1.379c0.013-0.119,0.027-0.244,0.04-0.369
					c0.017-0.104,0.036-0.211,0.054-0.314c0.055-0.273,0.109-0.494,0.196-0.75c0.164-0.482,0.415-0.961,0.739-1.389
					c0.325-0.424,0.717-0.795,1.137-1.109c0.848-0.637,1.784-1.084,2.714-1.512c0.933-0.426,1.867-0.824,2.745-1.309
					c0.437-0.24,0.865-0.502,1.256-0.787c0.397-0.287,0.769-0.611,1.082-0.959c0.642-0.703,1.067-1.559,1.239-2.447
					c0.176-0.893,0.109-1.803-0.072-2.639c-0.181-0.836-0.475-1.607-0.795-2.295c-0.643-1.381-1.377-2.438-1.91-3.152
					c-0.271-0.357-0.49-0.629-0.646-0.813c-0.154-0.18-0.236-0.275-0.236-0.275h-0.004c-0.056-0.066-0.047-0.168,0.016-0.227
					C74.498,76.934,74.592,76.938,74.651,76.996z"/>
				
					<radialGradient id="SVGID_00000018954194767227677450000010569346838749820827_" cx="72.9701" cy="103.4252" r="7.9408" gradientUnits="userSpaceOnUse">
					<stop  offset="0.0314" style="stop-color:#F61C00"/>
					<stop  offset="1" style="stop-color:#B22000"/>
				</radialGradient>
				<path style="fill:url(#SVGID_00000018954194767227677450000010569346838749820827_);" d="M73.454,93.266
					c0,0,0.368,0.176,0.95,0.574c0.576,0.404,1.393,1.025,2.138,2.008c0.369,0.494,0.712,1.084,0.932,1.777
					c0.226,0.686,0.302,1.471,0.19,2.256c-0.104,0.791-0.394,1.568-0.791,2.287c-0.111,0.18-0.218,0.359-0.327,0.537
					c-0.06,0.084-0.106,0.16-0.174,0.248c-0.07,0.086-0.142,0.184-0.216,0.26c-0.282,0.322-0.597,0.604-0.918,0.867
					c-0.646,0.52-1.328,0.959-1.982,1.389c-0.656,0.424-1.293,0.834-1.863,1.258c-0.568,0.426-1.067,0.881-1.374,1.344
					c-0.152,0.234-0.251,0.461-0.299,0.678c-0.006,0.055-0.025,0.111-0.025,0.158c-0.006,0.072-0.021,0.168-0.02,0.221
					c-0.004,0.107-0.004,0.229,0.004,0.348c0.07,0.953,0.606,1.604,1.021,1.984c0.425,0.387,0.734,0.523,0.688,0.502
					c0.423,0.234,0.575,0.771,0.338,1.191c-0.236,0.424-0.771,0.578-1.193,0.338c-0.042-0.027-0.454-0.256-1.017-0.851
					c-0.277-0.297-0.591-0.697-0.851-1.221c-0.255-0.52-0.445-1.186-0.439-1.906c0.002-0.176,0.016-0.355,0.041-0.557
					c0.011-0.104,0.027-0.16,0.041-0.246c0.016-0.107,0.045-0.207,0.071-0.307c0.113-0.404,0.315-0.779,0.559-1.102
					c0.49-0.646,1.116-1.125,1.757-1.555c0.647-0.432,1.326-0.814,2.004-1.195c0.675-0.389,1.353-0.773,1.969-1.215
					c0.623-0.439,1.144-0.939,1.507-1.576c0.394-0.629,0.68-1.307,0.802-1.988c0.127-0.68,0.098-1.361-0.073-1.979
					c-0.165-0.621-0.448-1.176-0.773-1.65c-0.646-0.949-1.402-1.592-1.94-2.006c-0.271-0.203-0.494-0.352-0.646-0.449
					c-0.157-0.1-0.237-0.146-0.237-0.146c-0.077-0.041-0.103-0.139-0.062-0.213c0.042-0.072,0.132-0.104,0.207-0.064L73.454,93.266z
					"/>
			</g>
		</g>
	</g>
</g>
</svg>
